<svg width="14" height="14" viewBox="0 0 14 14" fill="none" xmlns="http://www.w3.org/2000/svg">
<path clip-rule="evenodd" d="M9.77804 9.14069L13.6666 12.8253L12.8254 13.6666L8.99241 9.89887L9.4479 9.49736L9.77804 9.14069Z" fill="#00204D" fill-opacity="0.6" style="mix-blend-mode:multiply"/>
<path clip-rule="evenodd" d="M5.68709 1.52297C3.38736 1.52297 1.52306 3.38727 1.52306 5.687C1.52306 7.98672 3.38736 9.85102 5.68709 9.85102C7.98682 9.85102 9.85111 7.98672 9.85111 5.687C9.85111 3.38727 7.98682 1.52297 5.68709 1.52297ZM0.333344 5.687C0.333344 2.73021 2.7303 0.333252 5.68709 0.333252C8.64388 0.333252 11.0408 2.73021 11.0408 5.687C11.0408 8.64379 8.64388 11.0407 5.68709 11.0407C2.7303 11.0407 0.333344 8.64379 0.333344 5.687Z" fill="#00204D" fill-opacity="0.6" style="mix-blend-mode:multiply"/>
</svg>
