<svg width="14" height="13" viewBox="0 0 14 13" fill="none" xmlns="http://www.w3.org/2000/svg">
<path fill-rule="evenodd" clip-rule="evenodd" d="M13.6667 5.55556C13.6667 2.37159 10.5859 0 6.99999 0C3.4141 0 0.333323 2.37159 0.333323 5.55556C0.333323 6.8623 0.888977 8.03471 1.7515 8.9735L1.3406 12.5347L5.3113 10.9195C5.86869 11.064 6.42134 11.1111 6.99999 11.1111C10.5859 11.1111 13.6667 8.73952 13.6667 5.55556ZM6.99999 1.11111C10.1919 1.11111 12.5555 3.18396 12.5555 5.55556C12.5555 7.92715 10.1919 10 6.99999 10C6.42318 10 5.92514 9.94753 5.4374 9.80121L5.24983 9.74494L2.65938 10.7987L2.91599 8.57477L2.72616 8.38494C1.91787 7.57665 1.44443 6.60013 1.44443 5.55556C1.44443 3.18396 3.8081 1.11111 6.99999 1.11111Z" fill="#00204D" fill-opacity="0.6" style="mix-blend-mode:multiply"/>
</svg>
