<svg width="14" height="14" viewBox="0 0 14 14" fill="none" xmlns="http://www.w3.org/2000/svg">
<path d="M13.1904 4.75177L9.25695 4.18016L7.49992 0.618315C7.44883 0.531578 7.376 0.459678 7.2886 0.409725C7.20121 0.359772 7.1023 0.333496 7.00164 0.333496C6.90098 0.333496 6.80206 0.359772 6.71467 0.409725C6.62727 0.459678 6.55444 0.531578 6.50335 0.618315L4.74299 4.18016L0.809512 4.75177C0.706934 4.76657 0.610544 4.80978 0.531239 4.8765C0.451934 4.94323 0.392877 5.03081 0.360745 5.12934C0.328614 5.22788 0.324688 5.33344 0.349413 5.43408C0.374137 5.53473 0.426526 5.62646 0.500656 5.69889L3.34758 8.47304L2.67598 12.391C2.65848 12.4931 2.6699 12.5981 2.70897 12.6941C2.74803 12.7901 2.81317 12.8733 2.89703 12.9342C2.98089 12.9951 3.08011 13.0314 3.18349 13.0388C3.28687 13.0463 3.39027 13.0247 3.48201 12.9765L6.99997 11.1272L10.5179 12.9765C10.6097 13.0247 10.7131 13.0463 10.8164 13.0388C10.9198 13.0314 11.0191 12.9951 11.1029 12.9342C11.1868 12.8733 11.2519 12.7901 11.291 12.6941C11.33 12.5981 11.3415 12.4931 11.324 12.391L10.6524 8.47304L13.4993 5.69889C13.5734 5.62653 13.6258 5.53489 13.6506 5.43433C13.6754 5.33376 13.6715 5.22827 13.6395 5.12976C13.6075 5.03126 13.5486 4.94366 13.4694 4.87687C13.3903 4.81008 13.294 4.76674 13.1915 4.75177H13.1904Z" fill="#FC6B03"/>
</svg>
