<svg width="20" height="19" viewBox="0 0 20 19" fill="none" xmlns="http://www.w3.org/2000/svg">
<path fill-rule="evenodd" clip-rule="evenodd" d="M20 8.33333C20 3.55739 15.3788 0 10 0C4.62117 0 0 3.55739 0 8.33333C0 10.2934 0.833481 12.0521 2.12726 13.4603L1.51091 18.802L7.46697 16.3792C8.30305 16.596 9.13202 16.6667 10 16.6667C15.3788 16.6667 20 13.1093 20 8.33333ZM10 1.66667C14.7878 1.66667 18.3333 4.77594 18.3333 8.33333C18.3333 11.8907 14.7878 15 10 15C9.13479 15 8.38773 14.9213 7.65612 14.7018L7.37476 14.6174L3.48909 16.198L3.874 12.8622L3.58926 12.5774C2.37683 11.365 1.66667 9.9002 1.66667 8.33333C1.66667 4.77594 5.21216 1.66667 10 1.66667Z" fill="#00204D" fill-opacity="0.6" style="mix-blend-mode:multiply"/>
</svg>
