<svg width="18" height="17" viewBox="0 0 18 17" fill="none" xmlns="http://www.w3.org/2000/svg">
<path fill-rule="evenodd" clip-rule="evenodd" d="M11.289 0.845808C11.075 0.658574 10.7713 0.613784 10.5124 0.731274C10.2535 0.848765 10.0872 1.10682 10.0872 1.39115V3.58258C8.40712 3.66698 6.83517 4.07415 5.64452 5.18109C4.27529 6.45404 3.56545 8.50475 3.56545 11.5361C3.56545 11.8471 3.76397 12.1235 4.05875 12.2228C4.35353 12.3221 4.6788 12.2222 4.86702 11.9745C5.53246 11.099 6.12292 10.4774 6.95589 10.0532C7.6797 9.68457 8.64267 9.43749 10.0872 9.37675V11.5361C10.0872 11.8204 10.2535 12.0785 10.5124 12.196C10.7713 12.3134 11.075 12.2687 11.289 12.0814L17.0861 7.00896C17.2434 6.87136 17.3336 6.67257 17.3336 6.46362C17.3336 6.25466 17.2434 6.05587 17.0861 5.91827L11.289 0.845808ZM11.5365 4.2897V2.98809L15.5085 6.46362L11.5365 9.93915V8.63753C11.5365 8.23732 11.212 7.91289 10.8118 7.91289C8.82893 7.91289 7.41611 8.19243 6.2982 8.76173C5.8665 8.98158 5.48993 9.23915 5.1495 9.52609C5.39021 7.90886 5.93471 6.89014 6.63131 6.24252C7.58968 5.35153 8.99228 5.01434 10.8118 5.01434C11.212 5.01434 11.5365 4.68991 11.5365 4.2897Z" fill="#00204D" fill-opacity="0.6" style="mix-blend-mode:multiply"/>
<path d="M1.39132 3.56527C0.991118 3.56527 0.666687 3.8897 0.666687 4.2899V15.8841C0.666687 16.2843 0.991118 16.6087 1.39132 16.6087H15.1594C15.5596 16.6087 15.8841 16.2843 15.8841 15.8841V11.5363C15.8841 11.1361 15.5596 10.8116 15.1594 10.8116C14.7592 10.8116 14.4348 11.1361 14.4348 11.5363V15.1595H2.11596V5.01454H3.56524C3.96544 5.01454 4.28988 4.69011 4.28988 4.2899C4.28988 3.8897 3.96544 3.56527 3.56524 3.56527H1.39132Z" fill="#00204D" fill-opacity="0.6" style="mix-blend-mode:multiply"/>
</svg>
