<svg width="18" height="15" viewBox="0 0 18 15" fill="none" xmlns="http://www.w3.org/2000/svg">
<path d="M17.25 6H0.75C0.3 6 0 6.3 0 6.75V8.25C0 8.7 0.3 9 0.75 9H17.25C17.7 9 18 8.7 18 8.25V6.75C18 6.3 17.7 6 17.25 6Z" fill="#00204D" fill-opacity="0.6" style="mix-blend-mode:multiply"/>
<path d="M17.25 0H0.75C0.3 0 0 0.3 0 0.75V2.25C0 2.7 0.3 3 0.75 3H17.25C17.7 3 18 2.7 18 2.25V0.75C18 0.3 17.7 0 17.25 0Z" fill="#00204D" fill-opacity="0.6" style="mix-blend-mode:multiply"/>
<path d="M17.25 12H0.75C0.3 12 0 12.3 0 12.75V14.25C0 14.7 0.3 15 0.75 15H17.25C17.7 15 18 14.7 18 14.25V12.75C18 12.3 17.7 12 17.25 12Z" fill="#00204D" fill-opacity="0.6" style="mix-blend-mode:multiply"/>
</svg>
