<svg width="11" height="14" viewBox="0 0 11 14" fill="none" xmlns="http://www.w3.org/2000/svg">
<path d="M6.25 0.75H0.520833C0.3827 0.75 0.250224 0.804873 0.152549 0.902549C0.0548733 1.00022 0 1.1327 0 1.27083V12.7292C0 12.8673 0.0548733 12.9998 0.152549 13.0975C0.250224 13.1951 0.3827 13.25 0.520833 13.25H9.89583C10.034 13.25 10.1664 13.1951 10.2641 13.0975C10.3618 12.9998 10.4167 12.8673 10.4167 12.7292V4.91667H6.77083C6.6327 4.91667 6.50022 4.86179 6.40255 4.76412C6.30487 4.66644 6.25 4.53397 6.25 4.39583V0.75ZM1.82292 9.60417H8.59375C8.66282 9.60417 8.72906 9.6316 8.77789 9.68044C8.82673 9.72928 8.85417 9.79552 8.85417 9.86458V10.3854C8.85417 10.4545 8.82673 10.5207 8.77789 10.5696C8.72906 10.6184 8.66282 10.6458 8.59375 10.6458H1.82292C1.75385 10.6458 1.68761 10.6184 1.63877 10.5696C1.58994 10.5207 1.5625 10.4545 1.5625 10.3854V9.86458C1.5625 9.79552 1.58994 9.72928 1.63877 9.68044C1.68761 9.6316 1.75385 9.60417 1.82292 9.60417ZM1.82292 7H8.59375C8.66282 7 8.72906 7.02744 8.77789 7.07627C8.82673 7.12511 8.85417 7.19135 8.85417 7.26042V7.78125C8.85417 7.85032 8.82673 7.91655 8.77789 7.96539C8.72906 8.01423 8.66282 8.04167 8.59375 8.04167H1.82292C1.75385 8.04167 1.68761 8.01423 1.63877 7.96539C1.58994 7.91655 1.5625 7.85032 1.5625 7.78125V7.26042C1.5625 7.19135 1.58994 7.12511 1.63877 7.07627C1.68761 7.02744 1.75385 7 1.82292 7ZM4.42708 5.4375H1.82292C1.75385 5.4375 1.68761 5.41006 1.63877 5.36123C1.58994 5.31239 1.5625 5.24615 1.5625 5.17708V4.65625C1.5625 4.58718 1.58994 4.52095 1.63877 4.47211C1.68761 4.42327 1.75385 4.39583 1.82292 4.39583H4.42708C4.49615 4.39583 4.56239 4.42327 4.61123 4.47211C4.66006 4.52095 4.6875 4.58718 4.6875 4.65625V5.17708C4.6875 5.24615 4.66006 5.31239 4.61123 5.36123C4.56239 5.41006 4.49615 5.4375 4.42708 5.4375Z" fill="#00204D" fill-opacity="0.6" style="mix-blend-mode:multiply"/>
<path d="M10.1115 3.875H7.29167V1.05521L10.1115 3.875Z" fill="#00204D" fill-opacity="0.6" style="mix-blend-mode:multiply"/>
</svg>
