<svg width="19" height="20" viewBox="0 0 19 20" fill="none" xmlns="http://www.w3.org/2000/svg">
<path fill-rule="evenodd" clip-rule="evenodd" d="M4.45318 1.95287C5.70358 0.702467 7.39948 0 9.16782 0C10.9361 0 12.6321 0.702467 13.8825 1.95287C15.1328 3.20327 15.8353 4.89917 15.8353 6.6675V9.16782C15.8353 10.239 16.2996 10.8999 16.877 11.5543C16.9437 11.6299 17.0171 11.7107 17.0938 11.7951C17.326 12.0508 17.5886 12.3399 17.7897 12.6214C18.079 13.0263 18.3356 13.5335 18.3356 14.1684C18.3356 14.8754 17.9239 15.4252 17.4287 15.813C16.9333 16.201 16.2617 16.5067 15.4878 16.7461C13.9316 17.2276 11.7572 17.5022 9.16782 17.5022C6.5784 17.5022 4.40408 17.2276 2.84783 16.7461C2.07395 16.5067 1.40231 16.201 0.906916 15.813C0.411682 15.4252 0 14.8754 0 14.1684C0 13.5335 0.256655 13.0263 0.545915 12.6214C0.747008 12.3399 1.00959 12.0508 1.2418 11.7951C1.3185 11.7107 1.39189 11.6299 1.45865 11.5543C2.03601 10.8999 2.50031 10.239 2.50031 9.16782V6.6675C2.50031 4.89917 3.20278 3.20327 4.45318 1.95287ZM9.16782 1.66688C7.84157 1.66688 6.56964 2.19373 5.63184 3.13153C4.69404 4.06932 4.16719 5.34125 4.16719 6.6675V9.16782C4.16719 10.847 3.38133 11.8946 2.70854 12.6571C2.60029 12.7798 2.50196 12.8881 2.41187 12.9873C2.20553 13.2145 2.04243 13.3941 1.90231 13.5902C1.72276 13.8416 1.66688 14.0116 1.66688 14.1684C1.6668 14.1723 1.66434 14.289 1.93459 14.5007C2.20752 14.7144 2.66623 14.9451 3.34045 15.1537C4.68039 15.5682 6.67326 15.8353 9.16782 15.8353C11.6624 15.8353 13.6552 15.5682 14.9952 15.1537C15.6694 14.9451 16.1281 14.7144 16.401 14.5007C16.6713 14.289 16.6688 14.1723 16.6688 14.1685C16.6688 14.0117 16.6129 13.8416 16.4333 13.5902C16.2932 13.3941 16.1301 13.2145 15.9238 12.9873C15.8337 12.8881 15.7353 12.7798 15.6271 12.6571C14.9543 11.8946 14.1684 10.847 14.1684 9.16782V6.6675C14.1684 5.34125 13.6416 4.06932 12.7038 3.13153C11.766 2.19373 10.4941 1.66688 9.16782 1.66688Z" fill="#00204D" fill-opacity="0.6" style="mix-blend-mode:multiply"/>
<path d="M9.16783 18.3357C8.32523 18.3357 7.53346 18.3073 6.78837 18.2523C6.94722 18.759 7.26367 19.2018 7.69166 19.5161C8.11964 19.8305 8.6368 20 9.16783 20C9.69886 20 10.216 19.8305 10.644 19.5161C11.072 19.2018 11.3884 18.759 11.5473 18.2523C10.8022 18.3073 10.0104 18.3357 9.16783 18.3357Z" fill="#00204D" fill-opacity="0.6" style="mix-blend-mode:multiply"/>
</svg>
