<svg width="20" height="20" viewBox="0 0 20 20" fill="none" xmlns="http://www.w3.org/2000/svg">
<path fill-rule="evenodd" clip-rule="evenodd" d="M0.869565 0C0.389317 0 0 0.389317 0 0.869565C0 1.34981 0.389317 1.73913 0.869565 1.73913H2.71694L4.35545 14.028C4.41305 14.46 4.78156 14.7826 5.21739 14.7826H17.3913C17.8058 14.7826 18.1627 14.49 18.244 14.0836L19.9831 5.38792C20.0342 5.13247 19.9681 4.86756 19.8029 4.66609C19.6377 4.46463 19.3909 4.34782 19.1304 4.34782H4.81929L4.3402 0.75464C4.2826 0.322635 3.91409 0 3.47826 0H0.869565ZM5.97871 13.0435L5.05117 6.08695H18.0697L16.6784 13.0435H5.97871Z" fill="#00204D" fill-opacity="0.6" style="mix-blend-mode:multiply"/>
<path d="M5.21739 16.5217C4.25689 16.5217 3.47826 17.3004 3.47826 18.2609C3.47826 19.2214 4.25689 20 5.21739 20C6.17788 20 6.95652 19.2214 6.95652 18.2609C6.95652 17.3004 6.17788 16.5217 5.21739 16.5217Z" fill="#00204D" fill-opacity="0.6" style="mix-blend-mode:multiply"/>
<path d="M15.6522 18.2609C15.6522 17.3004 16.4308 16.5217 17.3913 16.5217C18.3518 16.5217 19.1304 17.3004 19.1304 18.2609C19.1304 19.2214 18.3518 20 17.3913 20C16.4308 20 15.6522 19.2214 15.6522 18.2609Z" fill="#00204D" fill-opacity="0.6" style="mix-blend-mode:multiply"/>
</svg>
