<svg width="14" height="14" viewBox="0 0 14 14" fill="none" xmlns="http://www.w3.org/2000/svg">
<path fill-rule="evenodd" clip-rule="evenodd" d="M5.33334 0.333496C5.08282 0.333496 4.86328 0.501175 4.79736 0.742875L3.24235 6.44461H0.888899C0.582074 6.44461 0.333344 6.69334 0.333344 7.00016V13.1113C0.333344 13.4181 0.582074 13.6668 0.888899 13.6668H10.5706C11.101 13.6663 11.6138 13.476 12.0162 13.1304C12.4185 12.7848 12.684 12.3066 12.7647 11.7824L13.363 7.8935C13.4117 7.57684 13.3913 7.2534 13.3034 6.94535C13.2154 6.63729 13.0618 6.35191 12.8532 6.10875C12.6446 5.8656 12.3859 5.67043 12.0948 5.53661C11.8037 5.4028 11.4871 5.33351 11.1667 5.3335H7.55557V2.55572C7.55557 1.96635 7.32144 1.40112 6.90469 0.98437C6.48794 0.567622 5.92271 0.333496 5.33334 0.333496ZM4.22223 7.07456L5.73697 1.52051C5.87887 1.57584 6.00924 1.66027 6.11902 1.77004C6.32739 1.97842 6.44445 2.26103 6.44445 2.55572V5.88905C6.44445 6.19588 6.69319 6.44461 7.00001 6.44461H11.1667C11.3269 6.44462 11.4851 6.47926 11.6307 6.54617C11.7762 6.61307 11.9056 6.71066 12.0099 6.83223C12.1142 6.95381 12.191 7.0965 12.235 7.25053C12.279 7.40455 12.2891 7.56629 12.2648 7.72461L11.6665 11.6135C11.6262 11.8756 11.4934 12.1147 11.2922 12.2875C11.091 12.4603 10.8346 12.5554 10.5694 12.5557H4.22223V7.07456ZM3.11112 12.5557V7.55572H1.44445V12.5557H3.11112Z" fill="#00204D" fill-opacity="0.6" style="mix-blend-mode:multiply"/>
</svg>
