<svg width="20" height="20" viewBox="0 0 20 20" fill="none" xmlns="http://www.w3.org/2000/svg">
<path d="M6.18035 18.333C7.13917 18.333 7.91645 17.5557 7.91645 16.5969C7.91645 15.6381 7.13917 14.8608 6.18035 14.8608C5.22153 14.8608 4.44426 15.6381 4.44426 16.5969C4.44426 17.5557 5.22153 18.333 6.18035 18.333Z" fill="#00204D" fill-opacity="0.6" style="mix-blend-mode:multiply"/>
<path d="M15.2081 18.333C16.1669 18.333 16.9441 17.5557 16.9441 16.5969C16.9441 15.6381 16.1669 14.8608 15.2081 14.8608C14.2492 14.8608 13.472 15.6381 13.472 16.5969C13.472 17.5557 14.2492 18.333 15.2081 18.333Z" fill="#00204D" fill-opacity="0.6" style="mix-blend-mode:multiply"/>
<path d="M15.5553 13.472H5.83313C5.48522 13.472 5.19078 13.2143 5.14495 12.8692L3.83662 3.05538H1.6665V1.6665H4.44426C4.79217 1.6665 5.08661 1.92414 5.13245 2.26928L5.51508 5.1387H17.6386C17.858 5.1387 18.065 5.24217 18.1955 5.41855C18.3268 5.59494 18.3671 5.82272 18.3039 6.03244L16.2205 12.9768C16.1323 13.2706 15.8615 13.472 15.5553 13.472Z" fill="#00204D" fill-opacity="0.6" style="mix-blend-mode:multiply"/>
</svg>
