<svg width="18" height="18" viewBox="0 0 18 18" fill="none" xmlns="http://www.w3.org/2000/svg">
<path d="M2.3282 2.32802C2.4641 2.19212 2.64841 2.11578 2.8406 2.11578H12.9855C13.1777 2.11578 13.362 2.19212 13.4979 2.32802C13.6338 2.46392 13.7102 2.64823 13.7102 2.84042V3.56505C13.7102 3.96526 14.0346 4.28969 14.4348 4.28969C14.835 4.28969 15.1594 3.96526 15.1594 3.56505V2.84042C15.1594 2.26386 14.9304 1.71092 14.5227 1.30323C14.115 0.895541 13.5621 0.666504 12.9855 0.666504H2.8406C2.26404 0.666504 1.7111 0.895541 1.30341 1.30323C0.895724 1.71092 0.666687 2.26386 0.666687 2.84042V16.6085C0.666687 16.8653 0.802552 17.1029 1.02384 17.2331C1.24513 17.3633 1.5188 17.3667 1.74324 17.242L7.91306 13.8143L14.0829 17.242C14.3073 17.3667 14.581 17.3633 14.8023 17.2331C15.0236 17.1029 15.1594 16.8653 15.1594 16.6085V13.71C15.1594 13.3098 14.835 12.9853 14.4348 12.9853C14.0346 12.9853 13.7102 13.3098 13.7102 13.71V15.377L8.26498 12.3519C8.04612 12.2303 7.78001 12.2303 7.56115 12.3519L2.11596 15.377V2.84042C2.11596 2.64823 2.19231 2.46392 2.3282 2.32802Z" fill="#00204D" fill-opacity="0.6" style="mix-blend-mode:multiply"/>
<path d="M14.4344 5.739C14.8346 5.739 15.1591 6.06343 15.1591 6.46364V7.91292H16.6083C17.0085 7.91292 17.333 8.23735 17.333 8.63755C17.333 9.03776 17.0085 9.36219 16.6083 9.36219H15.1591V10.8115C15.1591 11.2117 14.8346 11.5361 14.4344 11.5361C14.0342 11.5361 13.7098 11.2117 13.7098 10.8115V9.36219H12.2605C11.8603 9.36219 11.5359 9.03776 11.5359 8.63755C11.5359 8.23735 11.8603 7.91292 12.2605 7.91292H13.7098V6.46364C13.7098 6.06343 14.0342 5.739 14.4344 5.739Z" fill="#00204D" fill-opacity="0.6" style="mix-blend-mode:multiply"/>
</svg>
