<svg width="14" height="14" viewBox="0 0 14 14" fill="none" xmlns="http://www.w3.org/2000/svg">
<path fill-rule="evenodd" clip-rule="evenodd" d="M2.74899 12.1359C2.75467 12.1408 2.76046 12.1456 2.76634 12.1502C3.91772 13.0978 5.39242 13.6668 7.00001 13.6668C8.60632 13.6668 10.0799 13.0987 11.2309 12.1525L11.2338 12.1502C11.2406 12.1449 11.2472 12.1394 11.2536 12.1337C12.7278 10.9109 13.6667 9.06516 13.6667 7.00016C13.6667 3.31826 10.6819 0.333496 7.00001 0.333496C3.31811 0.333496 0.333344 3.31826 0.333344 7.00016C0.333344 9.06638 1.27332 10.913 2.74899 12.1359ZM1.44445 7.00016C1.44445 3.93191 3.93176 1.44461 7.00001 1.44461C10.0683 1.44461 12.5556 3.93191 12.5556 7.00016C12.5556 8.33434 12.0853 9.55868 11.3014 10.5164C11.1216 10.0401 10.7804 9.6317 10.3244 9.37114L9.18301 8.718C9.55552 8.24529 9.77779 7.64867 9.77779 7.00016V5.88905C9.77779 4.355 8.53406 3.11127 7.00001 3.11127C5.46596 3.11127 4.22223 4.355 4.22223 5.88905V7.00016C4.22223 7.64815 4.44415 8.24434 4.81612 8.71687L3.67513 9.3713C3.21917 9.63185 2.87821 10.0401 2.69853 10.5163C1.91472 9.55858 1.44445 8.33429 1.44445 7.00016ZM10.3333 11.445C9.40482 12.1425 8.25068 12.5557 7.00001 12.5557C5.74934 12.5557 4.59519 12.1424 3.66668 11.445V11.3007C3.66668 10.9017 3.88038 10.5336 4.22664 10.3359L5.73218 9.47236C6.11228 9.66769 6.54328 9.77794 7.00001 9.77794C7.45596 9.77794 7.88626 9.66807 8.26588 9.47336L9.77336 10.336C10.1196 10.5337 10.3333 10.9018 10.3333 11.3008V11.445ZM7.00001 4.22238C6.07961 4.22238 5.33334 4.96865 5.33334 5.88905V7.00016C5.33334 7.5676 5.61699 8.06885 6.05021 8.36985L6.05682 8.37441C6.32503 8.55886 6.64993 8.66683 7.00001 8.66683C7.34532 8.66683 7.66613 8.56179 7.93221 8.38191C7.94052 8.37583 7.94899 8.36999 7.9576 8.3644C8.38643 8.06282 8.66668 7.56419 8.66668 7.00016V5.88905C8.66668 4.96865 7.92041 4.22238 7.00001 4.22238Z" fill="#00204D" fill-opacity="0.6" style="mix-blend-mode:multiply"/>
</svg>
