<svg width="14" height="14" viewBox="0 0 14 14" fill="none" xmlns="http://www.w3.org/2000/svg">
<path fill-rule="evenodd" clip-rule="evenodd" d="M7.00001 0.333496C7.23072 0.333496 7.44141 0.46448 7.5435 0.671368L9.27522 4.18075L13.1477 4.74342C13.376 4.77659 13.5657 4.93649 13.637 5.15589C13.7083 5.37529 13.6488 5.61613 13.4836 5.77716L10.6815 8.5087L11.3428 12.3656C11.3818 12.593 11.2883 12.8228 11.1016 12.9584C10.915 13.0939 10.6676 13.1118 10.4634 13.0044L7.00001 11.1831L3.53666 13.0044C3.33247 13.1118 3.08503 13.0939 2.89838 12.9584C2.71172 12.8228 2.61824 12.593 2.65722 12.3656L3.31853 8.5087L0.516375 5.77716C0.351184 5.61613 0.291736 5.37529 0.363027 5.15589C0.434318 4.93649 0.623983 4.77659 0.852277 4.74342L4.7248 4.18075L6.45652 0.671368C6.55861 0.46448 6.76931 0.333496 7.00001 0.333496ZM7.00001 2.30915L5.67078 5.00288C5.5825 5.18178 5.41185 5.30577 5.21443 5.33446L2.2418 5.76637L4.39276 7.86313C4.53559 8.00236 4.60076 8.20294 4.56706 8.39953L4.05946 11.36L6.71792 9.96191C6.89452 9.86904 7.10551 9.86904 7.2821 9.96191L9.94057 11.36L9.43296 8.39953C9.39926 8.20294 9.46443 8.00236 9.60726 7.86313L11.7582 5.76637L8.78559 5.33446C8.58817 5.30577 8.41752 5.18178 8.32924 5.00288L7.00001 2.30915Z" fill="#00204D" fill-opacity="0.6" style="mix-blend-mode:multiply"/>
</svg>
