<svg width="14" height="14" viewBox="0 0 14 14" fill="none" xmlns="http://www.w3.org/2000/svg">
<path d="M7.00004 0.333252C5.6815 0.333252 4.39257 0.724245 3.29624 1.45679C2.19991 2.18933 1.34543 3.23052 0.840847 4.44869C0.336263 5.66687 0.20424 7.00731 0.461475 8.30052C0.71871 9.59373 1.35365 10.7816 2.286 11.714C3.21835 12.6463 4.40623 13.2812 5.69944 13.5385C6.99265 13.7957 8.33309 13.6637 9.55126 13.1591C10.7694 12.6545 11.8106 11.8 12.5432 10.7037C13.2757 9.60739 13.6667 8.31846 13.6667 6.99992C13.6616 5.23339 12.9576 3.54067 11.7084 2.29154C10.4593 1.04241 8.76657 0.338382 7.00004 0.333252V0.333252ZM9.75004 8.96436L8.96449 9.74992L7.00004 7.78547L5.0356 9.74992L4.25004 8.96436L6.21449 6.99992L4.25004 5.03547L5.0356 4.24992L7.00004 6.21436L8.96449 4.24992L9.75004 5.03547L7.7856 6.99992L9.75004 8.96436Z" fill="#00204D" fill-opacity="0.6" style="mix-blend-mode:multiply"/>
</svg>
